<svg width="1050" height="72" viewBox="0 0 1050 72" fill="none" xmlns="http://www.w3.org/2000/svg">
<path d="M71.9219 15.7272C250.255 30.988 71.9247 12.4903 136.934 12.4822C310.696 12.4607 655.864 12.4822 721.67 12.4822C879.88 12.4822 321.225 13.3987 289.049 15.7038C192.662 22.609 150.338 21.7303 151.342 23.1189C162.449 38.476 237.824 22.6746 426.652 20.3695C599.433 18.2603 785.293 16.6715 949.15 15.7272C1113.01 14.783 1001.88 22.6606 989.138 23.1189C962.563 24.0744 1037.35 26.3683 989.138 27.743C899.417 30.3013 880.919 26.3683 702.205 27.743C626.292 28.327 580.637 31.8672 447.363 36.4912C314.09 41.1153 327.53 38.045 219.054 41.8081C110.579 45.5712 -113.163 55.9733 82.4189 55.529C278 55.0846 659.743 53.2516 850.683 51.3909C1041.62 49.5302 1030.19 47.6973 1017.45 46.753C1004.7 45.8088 990.988 45.8088 831.912 48.1C672.835 50.3912 368.812 54.9736 219.052 58.7089C69.2926 62.4443 83.0078 65.1937 224.94 64.3189C366.873 63.4441 636.607 58.8617 789.276 55.5846C969.569 51.7145 1018.21 48.586 1043.67 47.6695C1049.04 47.4761 1037.12 44.92 896.367 43.9758C755.612 43.0315 485.877 43.0315 338.923 42.5733C141.115 41.9565 94.922 39.3378 71.9247 37.9492C58.176 37.119 39.7839 37.4771 178.946 36.5606C318.108 35.6441 615.273 33.8112 772.929 33.3252C930.586 32.8392 939.729 33.7557 949.15 34.6999" stroke="black" stroke-width="10" stroke-linecap="round"/>
<path d="M22.8008 55.6308C23.347 52.2507 26.6408 44.6102 32.707 36.5297C38.6522 28.6104 39.3525 22.0716 39.3525 20.1328C39.3525 6.73874 34.9498 41.1407 33.0132 48.373C32.4517 50.47 32.7319 53.0287 33.5512 53.4879C41.3164 57.84 43.7553 38.2325 47.8849 30.573C49.767 27.0821 53.6863 24.6098 55.3415 23.1111C61.256 17.7555 48.7539 40.2734 45.427 46.2684C42.4288 51.6713 54.7787 34.4059 65.5208 18.9018C67.0473 16.6986 67.4904 19.023 66.9442 21.37C64.7386 30.8473 59.7774 39.8397 54.8201 52.1868C53.7782 54.7821 53.1567 56.4471 53.4215 56.4726C63.0856 57.4036 66.3649 40.7836 73.8049 32.2822C78.2728 27.1769 80.7153 22.0588 83.198 20.7705C91.4108 16.5089 79.6394 36.0386 76.056 44.1191C74.221 48.257 73.5649 52.2124 74.1029 53.2902C84.1213 73.3643 108.853 10.9999 111.336 10.3494C121.003 7.81654 106.122 27.5181 101.438 38.3728C97.9833 46.3785 96.1911 56.0134 95.347 62.6334C94.1276 72.1968 112.147 42.4928 119.877 35.2478C127.171 28.4111 139.689 16.1658 151.871 6.75242C153.135 5.7755 153.559 7.97695 153.286 9.68616C152.145 16.8303 144.754 23.2833 140.335 30.0946C136.019 36.7462 134.26 42.0081 133.697 44.1382C132.08 50.2612 147.468 34.4059 154.908 26.5359C156.853 24.6098 158.492 22.9261 160.428 21.4274C162.365 19.9286 164.55 18.6659 166.801 18.6404" stroke="black" stroke-width="13" stroke-linecap="round"/>
<path d="M1031.18 42.2969C1031.18 41.3907 1031.18 35.4869 1031.46 28.1552C1031.61 23.9478 1031.75 41.3358 1030.64 51.6401C1030.11 56.6078 1027.88 61.0382 1027.88 63.338C1027.88 70.1836 1029.53 45.5646 1033.92 28.8554C1036.27 19.9119 1037.23 14.3978 1037.79 11.8784C1037.98 11.0599 1035.08 11.6244 1032.87 13.4436C1022.43 22.0187 1016.91 33.5373 1012.19 40.4571C1008.88 45.3128 1015.75 26.7822 1015.77 21.0225C1015.79 13.0703 1006.97 36.3107 1001.75 43.6424C996.521 50.9802 991.553 56.4661 989.347 57.8529C981.854 62.5645 993.717 42.7912 995.113 35.4594C995.811 31.7903 996.492 27.6746 995.402 24.4687C994.974 23.2119 992.131 23.9813 990.19 25.3474C980.285 32.3181 977.246 45.0017 973.116 49.8209C967.881 55.9289 978.848 30.4618 980.253 22.4092C980.484 21.082 977.263 20.796 974.776 21.6953C962.425 26.1628 959.057 34.9514 958.223 37.0247C954.838 45.4367 966.739 21.7296 968.4 16.931C969.091 14.9318 966.789 13.4917 963.493 14.8303C944.944 22.3645 943.644 33.1254 941.166 34.9652C939.446 36.2425 943.594 28.5945 946.923 21.7296C947.776 19.9706 948.022 18.0774 947.212 17.3704C946.403 16.6633 944.222 17.1164 942.554 18.256C934.472 23.7756 928.792 32.6586 921.903 39.2969C918.343 42.7275 913.908 45.0292 911.975 45.5029C907.231 46.6654 914.982 35.4595 915.543 31.7936C915.015 30.8462 912.834 31.7524 911.165 33.1254C909.497 34.4984 908.407 36.3107 908.935 39.5509" stroke="black" stroke-width="14" stroke-linecap="round"/>
</svg>
